<svg width="124" height="25" viewBox="0 0 124 25" fill="none" xmlns="http://www.w3.org/2000/svg">
<g id="FuturaEd">
<path d="M2.74688 5.29657L4.83531 3.08881V12.3525L3.40325 11.1889H12.3984V14.7691H3.40325L4.83531 13.516V23.7195H0.210938V1.71641H13.726V5.29657H2.74688Z" fill="white"/>
<path d="M20.5053 24.0178C19.3815 24.0178 18.4566 23.8388 17.7306 23.4808C17.0047 23.1128 16.4328 22.6206 16.0151 22.004C15.5975 21.3874 15.3041 20.7012 15.135 19.9454C14.966 19.1896 14.8814 18.4238 14.8814 17.6481C14.8814 17.2901 14.8814 16.9122 14.8814 16.5144C14.8814 16.1166 14.8814 15.7089 14.8814 15.2912V7.87727H19.5058V14.5602C19.5058 14.8984 19.5058 15.2265 19.5058 15.5448C19.5058 15.863 19.5058 16.1564 19.5058 16.4249C19.5058 17.0912 19.5804 17.7028 19.7296 18.2597C19.8787 18.8166 20.1522 19.2642 20.55 19.6023C20.9578 19.9404 21.5346 20.1095 22.2804 20.1095C23.0064 20.1095 23.623 19.9056 24.1302 19.4979C24.6374 19.0802 25.0252 18.5481 25.2937 17.9017C25.5622 17.2553 25.6965 16.589 25.6965 15.9028L26.9943 16.9619C26.9943 17.9564 26.8402 18.8813 26.5319 19.7365C26.2335 20.5918 25.8059 21.3426 25.249 21.9891C24.6921 22.6255 24.0108 23.1228 23.2053 23.4808C22.4097 23.8388 21.5097 24.0178 20.5053 24.0178ZM25.6965 23.7195V7.87727H30.3209V23.7195H25.6965Z" fill="white"/>
<path d="M40.3838 24.0476C39.7771 24.0476 39.1506 23.993 38.5042 23.8836C37.8677 23.7841 37.271 23.5802 36.7141 23.2719C36.1671 22.9537 35.7246 22.4913 35.3865 21.8846C35.0483 21.278 34.8793 20.4774 34.8793 19.4829C34.8793 19.2642 34.8793 19.0404 34.8793 18.8117C34.8793 18.5829 34.8793 18.3542 34.8793 18.1255V11.4574H31.2245V7.87727H32.2538C32.8505 7.87727 33.3229 7.85241 33.671 7.80268C34.029 7.75296 34.2925 7.62865 34.4616 7.42975C34.6406 7.22091 34.755 6.8977 34.8047 6.46012C34.8544 6.02255 34.8793 5.42088 34.8793 4.65512V2.6562H39.5186V7.87727H44.128V11.4574H39.5186V17.1558C39.5186 17.3349 39.5186 17.5089 39.5186 17.678C39.5186 17.847 39.5186 18.0111 39.5186 18.1702C39.5186 18.8564 39.5981 19.4133 39.7572 19.841C39.9263 20.2686 40.339 20.4824 40.9954 20.4824C41.3236 20.4824 41.6319 20.4526 41.9203 20.3929C42.2186 20.3332 42.4424 20.2736 42.5915 20.2139V23.6896C42.3827 23.7791 42.0893 23.8587 41.7114 23.9283C41.3335 24.0079 40.891 24.0476 40.3838 24.0476Z" fill="white"/>
<path d="M51.362 24.0178C50.2382 24.0178 49.3133 23.8388 48.5874 23.4808C47.8614 23.1128 47.2896 22.6206 46.8719 22.004C46.4542 21.3874 46.1608 20.7012 45.9918 19.9454C45.8227 19.1896 45.7382 18.4238 45.7382 17.6481C45.7382 17.2901 45.7382 16.9122 45.7382 16.5144C45.7382 16.1166 45.7382 15.7089 45.7382 15.2912V7.87727H50.3625V14.5602C50.3625 14.8984 50.3625 15.2265 50.3625 15.5448C50.3625 15.863 50.3625 16.1564 50.3625 16.4249C50.3625 17.0912 50.4371 17.7028 50.5863 18.2597C50.7355 18.8166 51.0089 19.2642 51.4067 19.6023C51.8145 19.9404 52.3913 20.1095 53.1372 20.1095C53.8631 20.1095 54.4797 19.9056 54.9869 19.4979C55.4941 19.0802 55.8819 18.5481 56.1505 17.9017C56.419 17.2553 56.5532 16.589 56.5532 15.9028L57.851 16.9619C57.851 17.9564 57.6969 18.8813 57.3886 19.7365C57.0902 20.5918 56.6626 21.3426 56.1057 21.9891C55.5488 22.6255 54.8676 23.1228 54.062 23.4808C53.2664 23.8388 52.3664 24.0178 51.362 24.0178ZM56.5532 23.7195V7.87727H61.1776V23.7195H56.5532Z" fill="white"/>
<path d="M63.4536 23.7195V7.87727H68.0929V13.337L67.1382 12.7403C67.2476 11.9944 67.4465 11.3083 67.7349 10.6817C68.0233 10.0552 68.3963 9.5132 68.8537 9.05574C69.3112 8.58833 69.8532 8.22534 70.4797 7.96677C71.1162 7.7082 71.8422 7.57892 72.6576 7.57892C73.2941 7.57892 73.7914 7.62865 74.1494 7.72809C74.5173 7.8176 74.7461 7.88721 74.8356 7.93694L74.0748 12.084C73.9853 12.0342 73.7864 11.9547 73.4781 11.8453C73.1698 11.7359 72.772 11.6812 72.2847 11.6812C71.4891 11.6812 70.8228 11.8154 70.2858 12.084C69.7488 12.3525 69.3162 12.7105 68.988 13.158C68.6697 13.5956 68.441 14.0829 68.3018 14.6199C68.1626 15.1569 68.0929 15.6989 68.0929 16.2459V23.7195H63.4536Z" fill="white"/>
<path d="M81.0619 24.0476C79.9083 24.0476 78.879 23.8637 77.974 23.4957C77.079 23.1277 76.3779 22.5957 75.8707 21.8996C75.3635 21.2034 75.1099 20.3581 75.1099 19.3636C75.1099 18.2398 75.4182 17.3249 76.0348 16.6188C76.6514 15.9127 77.4668 15.3757 78.4812 15.0077C79.5055 14.6298 80.6144 14.3812 81.8078 14.2619C83.5481 14.0928 84.7465 13.9387 85.4029 13.7994C86.0692 13.6602 86.4023 13.4166 86.4023 13.0685C86.4023 13.0586 86.4023 13.0486 86.4023 13.0387C86.4023 12.4519 86.1189 11.9895 85.552 11.6514C84.9951 11.3132 84.2144 11.1442 83.21 11.1442C82.1459 11.1442 81.3304 11.3381 80.7636 11.7259C80.2067 12.1038 79.9282 12.6856 79.9282 13.4713H75.3784C75.3784 12.1983 75.7215 11.1243 76.4077 10.2491C77.1039 9.37397 78.0436 8.71264 79.2271 8.26512C80.4105 7.80765 81.7481 7.57892 83.2399 7.57892C84.6321 7.57892 85.92 7.79274 87.1034 8.22037C88.2869 8.63805 89.2366 9.26955 89.9526 10.1149C90.6786 10.9602 91.0416 12.0342 91.0416 13.337C91.0416 13.5459 91.0416 13.7547 91.0416 13.9635C91.0416 14.1624 91.0416 14.3663 91.0416 14.5751V20.1841C91.0416 20.5918 91.0516 20.9846 91.0715 21.3625C91.1013 21.7305 91.1609 22.0686 91.2505 22.3769C91.3499 22.725 91.4742 23.0134 91.6234 23.2421C91.7726 23.4708 91.8969 23.63 91.9963 23.7195H87.4465C87.3769 23.6499 87.2675 23.5057 87.1184 23.2869C86.9791 23.0681 86.8598 22.8145 86.7603 22.5261C86.641 22.178 86.5515 21.8299 86.4918 21.4819C86.4421 21.1239 86.4173 20.7062 86.4173 20.2288L87.372 20.8852C87.0935 21.5415 86.641 22.1084 86.0145 22.5858C85.3979 23.0532 84.662 23.4161 83.8067 23.6747C82.9614 23.9233 82.0465 24.0476 81.0619 24.0476ZM82.3001 20.5868C83.026 20.5868 83.7023 20.4575 84.3288 20.199C84.9653 19.9305 85.4824 19.5128 85.8802 18.9459C86.278 18.3791 86.4769 17.6382 86.4769 16.7232V15.1271L87.6255 16.2459C86.9692 16.4846 86.2084 16.6835 85.3432 16.8426C84.4879 16.9918 83.6327 17.1111 82.7774 17.2006C81.763 17.3 81.0023 17.4741 80.4951 17.7227C79.9978 17.9614 79.7492 18.3691 79.7492 18.9459C79.7492 19.4929 79.963 19.9056 80.3906 20.1841C80.8183 20.4526 81.4547 20.5868 82.3001 20.5868Z" fill="white"/>
<path d="M95.8131 5.29657L97.9015 3.08881V12.2033L96.8573 10.8906H104.972V14.4707H96.8573L97.9015 13.158V22.3471L95.8131 20.1393H106.628V23.7195H93.2473V1.71641H106.628V5.29657H95.8131Z" fill="white"/>
<path d="M114.483 24.0775C113.16 24.0775 111.942 23.7642 110.828 23.1377C109.714 22.5012 108.819 21.5614 108.143 20.3183C107.467 19.0752 107.129 17.5437 107.129 15.7238C107.129 13.9834 107.472 12.5066 108.158 11.2933C108.854 10.0801 109.759 9.16016 110.873 8.53363C111.997 7.89716 113.2 7.57892 114.483 7.57892C115.736 7.57892 116.88 7.89716 117.914 8.53363C118.958 9.1701 119.793 10.0403 120.42 11.1442C121.046 12.2381 121.36 13.5011 121.36 14.9332C121.36 14.9829 121.36 15.0326 121.36 15.0823C121.36 15.1221 121.36 15.1669 121.36 15.2166L119.361 15.2464C119.361 15.2166 119.361 15.1868 119.361 15.1569C119.361 15.1171 119.361 15.0823 119.361 15.0525C119.361 14.3066 119.182 13.6652 118.824 13.1282C118.466 12.5911 118.003 12.1784 117.436 11.89C116.87 11.5917 116.278 11.4425 115.661 11.4425C114.637 11.4425 113.752 11.7856 113.006 12.4718C112.26 13.1481 111.887 14.232 111.887 15.7238C111.887 17.2155 112.26 18.3144 113.006 19.0205C113.762 19.7167 114.647 20.0647 115.661 20.0647C116.298 20.0647 116.899 19.9156 117.466 19.6172C118.033 19.3089 118.491 18.8763 118.839 18.3194C119.187 17.7625 119.361 17.1061 119.361 16.3503L121.36 16.4547C121.36 17.8768 121.051 19.1647 120.435 20.3183C119.828 21.462 119.003 22.3769 117.959 23.0631C116.924 23.7394 115.766 24.0775 114.483 24.0775ZM119.361 23.7195V0.403687H124V23.7195H119.361Z" fill="white"/>
</g>
</svg>
