<svg width="1118" height="773" viewBox="0 0 1118 773" fill="none" xmlns="http://www.w3.org/2000/svg">
<g opacity="0.45">
<path d="M1117.5 323.5C1117.5 571.395 876.718 772.5 579.5 772.5C282.282 772.5 41.5 571.395 41.5 323.5C41.5 75.6049 282.282 -125.5 579.5 -125.5C876.718 -125.5 1117.5 75.6049 1117.5 323.5Z" stroke="#E8C308"/>
<path d="M1073.5 221.5C1073.5 469.395 832.718 670.5 535.5 670.5C238.282 670.5 -2.5 469.395 -2.5 221.5C-2.5 -26.3951 238.282 -227.5 535.5 -227.5C832.718 -227.5 1073.5 -26.3951 1073.5 221.5Z" stroke="#E8C308"/>
<path d="M1029.5 119.5C1029.5 367.395 788.718 568.5 491.5 568.5C194.282 568.5 -46.5 367.395 -46.5 119.5C-46.5 -128.395 194.282 -329.5 491.5 -329.5C788.718 -329.5 1029.5 -128.395 1029.5 119.5Z" stroke="#E8C308"/>
</g>
</svg>
